<?xml version="1.0" encoding="UTF-8" standalone="no"?>
<!-- Created with Inkscape (http://www.inkscape.org/) -->

<svg
   xmlns:dc="http://purl.org/dc/elements/1.1/"
   xmlns:cc="http://creativecommons.org/ns#"
   xmlns:rdf="http://www.w3.org/1999/02/22-rdf-syntax-ns#"
   xmlns:svg="http://www.w3.org/2000/svg"
   xmlns="http://www.w3.org/2000/svg"
   xmlns:sodipodi="http://sodipodi.sourceforge.net/DTD/sodipodi-0.dtd"
   xmlns:inkscape="http://www.inkscape.org/namespaces/inkscape"
   width="744.09448819"
   height="1052.3622047"
   id="svg2"
   version="1.1"
   inkscape:version="0.48.4 r9939"
   sodipodi:docname="mascot.svg">
  <defs
     id="defs4" />
  <sodipodi:namedview
     id="base"
     pagecolor="#ffffff"
     bordercolor="#666666"
     borderopacity="1.0"
     inkscape:pageopacity="0.0"
     inkscape:pageshadow="2"
     inkscape:zoom="0.73586612"
     inkscape:cx="138.2026"
     inkscape:cy="684.37718"
     inkscape:document-units="px"
     inkscape:current-layer="layer1"
     showgrid="false"
     inkscape:window-width="1596"
     inkscape:window-height="856"
     inkscape:window-x="0"
     inkscape:window-y="20"
     inkscape:window-maximized="0" />
  <metadata
     id="metadata7">
    <rdf:RDF>
      <cc:Work
         rdf:about="">
        <dc:format>image/svg+xml</dc:format>
        <dc:type
           rdf:resource="http://purl.org/dc/dcmitype/StillImage" />
        <dc:title></dc:title>
      </cc:Work>
    </rdf:RDF>
  </metadata>
  <g
     inkscape:label="Layer 1"
     inkscape:groupmode="layer"
     id="layer1">
    <path
       style="fill:#5fd35f;stroke:#000000;stroke-width:1px;stroke-linecap:butt;stroke-linejoin:miter;stroke-opacity:1;fill-opacity:1"
       d="M 530.64665,563.54394 512.60302,587.32872 544.58945,620.13532 556.89192,607.01268 532.28697,583.2279 542.12895,560.26328 z"
       id="path3885"
       inkscape:connector-curvature="0"
       inkscape:export-filename="/home/tim/pp/load_and_authorize_resource/mascot.png"
       inkscape:export-xdpi="76.360001"
       inkscape:export-ydpi="76.360001" />
    <path
       style="fill:#5fd35f;stroke:#000000;stroke-width:0.93098742000000001px;stroke-linecap:butt;stroke-linejoin:miter;stroke-opacity:1;fill-opacity:1"
       d="M 569.18902,559.40861 590.55319,639.58673 564.25883,643.13444 553.57675,559.40861 z"
       id="path3887"
       inkscape:connector-curvature="0"
       inkscape:export-filename="/home/tim/pp/load_and_authorize_resource/mascot.png"
       inkscape:export-xdpi="76.360001"
       inkscape:export-ydpi="76.360001" />
    <path
       style="fill:#aa00d4;stroke:#000000;stroke-width:1px;stroke-linecap:butt;stroke-linejoin:miter;stroke-opacity:1"
       d="M 574.11538,543.85999 C 576.67388,526.22873 593.66298,502.09976 610.20263,493.82993 618.05391,489.90429 629.51586,489.72911 638.08824,489.72911 641.03656,489.72911 647.78772,488.42762 650.39071,489.72911 660.80206,494.93479 666.38051,514.32495 670.07467,524.17603 675.24758,537.97048 682.17483,550.8405 686.47796,565.18427 692.9138,586.63707 697.88301,609.28002 706.16192,629.9773 709.51794,638.36736 713.3254,646.87375 718.46439,654.58224 719.42648,656.02538 724.92506,662.06437 724.20554,662.78389 723.3056,663.68383 711.90307,665.52886 711.90307,664.42422 711.90307,661.11863 714.95921,672.85039 714.36357,673.44603 711.76058,676.04902 703.84787,671.5128 702.06109,675.08636 701.61762,675.97332 702.77078,679.29766 702.06109,680.00735 701.2299,680.83854 695.16548,680.00735 693.85945,680.00735 692.01116,680.00735 687.18062,681.8819 684.01747,680.82752 674.02229,677.49579 669.39154,659.02565 665.97384,650.48142 655.20307,623.55449 652.49426,592.99768 641.3689,565.18427 638.88908,558.98474 631.34711,554.009 627.42609,548.78098 621.87056,541.3736 615.49614,531.33369 607.74214,527.45669 592.15399,519.66262 582.58774,540.47104 574.11538,543.85999 z"
       id="path3883"
       inkscape:connector-curvature="0"
       inkscape:export-filename="/home/tim/pp/load_and_authorize_resource/mascot.png"
       inkscape:export-xdpi="76.360001"
       inkscape:export-ydpi="76.360001" />
    <path
       style="fill:#5fd35f;stroke:#000000;stroke-width:1px;stroke-linecap:butt;stroke-linejoin:miter;stroke-opacity:1"
       d="M 314.06414,546.44484 C 314.06414,546.44484 294.34604,587.04093 290.86637,602.69942 287.38671,618.35791 287.38671,618.35791 287.38671,618.35791 L 304.20509,620.67769 310.58447,580.66154 326.82291,547.02478 z"
       id="path3094"
       inkscape:connector-curvature="0"
       inkscape:export-filename="/home/tim/pp/load_and_authorize_resource/mascot.png"
       inkscape:export-xdpi="76.360001"
       inkscape:export-ydpi="76.360001" />
    <path
       style="fill:#5fd35f;stroke:#000000;stroke-width:1px;stroke-linecap:butt;stroke-linejoin:miter;stroke-opacity:1"
       d="M 332.62235,547.60473 323.34324,595.16015 380.75771,605.59914 375.53821,587.62087 340.16162,581.82143 342.4814,547.02478 z"
       id="path3096"
       inkscape:connector-curvature="0"
       inkscape:export-filename="/home/tim/pp/load_and_authorize_resource/mascot.png"
       inkscape:export-xdpi="76.360001"
       inkscape:export-ydpi="76.360001" />
    <path
       style="fill:#5a2ca0;stroke:#000000;stroke-width:1px;stroke-linecap:butt;stroke-linejoin:miter;stroke-opacity:1"
       d="M 134.28146,403.77859 C 133.12157,392.17971 133.12157,386.96021 133.12157,386.96021 L 134.28146,389.27999 C 134.28146,389.27999 137.76112,370.14183 140.0809,372.46161 142.40068,374.78138 144.14051,378.26105 144.14051,378.26105 144.14051,378.26105 153.99956,355.64323 157.47922,359.70284 160.95889,363.76244 169.65805,365.50228 169.65805,365.50228 169.65805,365.50228 188.21626,345.78418 187.05637,363.1825 185.89649,380.58082 196.33548,364.92233 196.33548,364.92233 196.33548,364.92233 214.89369,357.38306 209.09425,378.26105 203.29481,399.13904 224.75274,385.80032 224.75274,385.80032 224.75274,385.80032 246.79062,366.66216 240.99118,392.75965 235.19174,418.85713 253.17,397.97915 253.17,397.97915 253.17,397.97915 272.30816,386.38026 266.50872,412.47775 260.70928,438.57523 275.78782,420.01702 275.78782,420.01702 275.78782,420.01702 275.78782,453.07384 282.16721,452.49389 288.54659,451.91395 314.64408,445.53456 303.0452,463.51283 291.44631,481.4911 306.52486,476.85155 306.52486,476.85155 L 312.90425,493.66993 321.60341,508.74847 311.74436,509.90836 318.70369,518.60752 311.16441,516.28775 312.90425,525.56685 261.28922,488.45043 208.51431,405.51842 147.62017,403.19864 z"
       id="path3092"
       inkscape:connector-curvature="0"
       inkscape:export-filename="/home/tim/pp/load_and_authorize_resource/mascot.png"
       inkscape:export-xdpi="76.360001"
       inkscape:export-ydpi="76.360001" />
    <path
       style="fill:#ddff55;stroke:#000000;stroke-width:1px;stroke-linecap:butt;stroke-linejoin:miter;stroke-opacity:1"
       d="M 147.62017,413.05769 C 147.62017,413.05769 152.25973,402.6187 167.91822,405.51842 183.57671,408.41814 204.4547,420.01702 212.57392,428.71618 220.69313,437.41535 256.06972,513.96797 270.56833,524.98691 285.06693,536.00585 301.30536,546.44483 326.82291,547.02478 339.70511,547.31756 375.79266,552.04448 408.37256,556.65389 440.32814,561.17497 575.53064,563.12251 575.53064,563.12251 L 584.7428,553.68081 587.93262,542.76617 C 587.93262,542.76617 452.68332,539.02875 428.91497,538.08766 387.08003,536.43124 327.26864,533.27434 315.80397,528.46657 297.8257,520.92729 268.24855,496.56965 258.3895,473.37188 248.53045,450.17412 229.39229,401.45881 189.9561,390.43987 150.5199,379.42094 155.73939,389.85993 153.99956,389.85993 152.25973,389.85993 138.34107,407.25825 138.34107,407.25825 z"
       id="path3090"
       inkscape:connector-curvature="0"
       sodipodi:nodetypes="cssssscccssssscc"
       inkscape:export-filename="/home/tim/pp/load_and_authorize_resource/mascot.png"
       inkscape:export-xdpi="76.360001"
       inkscape:export-ydpi="76.360001" />
    <path
       style="fill:#ff7f2a;fill-opacity:1;stroke:#000000;stroke-width:1px;stroke-linecap:butt;stroke-linejoin:miter;stroke-opacity:1"
       d="M 105.51668,411.19475 C 104.79024,406.5967 95.782017,367.51516 108.34639,371.20722 119.05896,374.35514 127.09559,397.17816 133.38314,405.59681"
       id="path3086"
       inkscape:connector-curvature="0"
       inkscape:transform-center-x="-6.9593294"
       inkscape:transform-center-y="-5.219497"
       inkscape:export-filename="/home/tim/pp/load_and_authorize_resource/mascot.png"
       inkscape:export-xdpi="76.360001"
       inkscape:export-ydpi="76.360001" />
    <path
       style="fill:#ff7f2a;stroke:#000000;stroke-width:1px;stroke-linecap:butt;stroke-linejoin:miter;stroke-opacity:1"
       d="M 158.05916,424.65657 C 165.28696,428.22966 169.81041,429.29613 177.77726,429.29613 182.0656,429.29613 203.36472,433.21591 199.81514,440.31506 198.42443,443.09648 154.9846,464.26762 148.20011,471.0521"
       id="path3082"
       inkscape:connector-curvature="0"
       inkscape:export-filename="/home/tim/pp/load_and_authorize_resource/mascot.png"
       inkscape:export-xdpi="76.360001"
       inkscape:export-ydpi="76.360001" />
    <path
       style="fill:#ff2a2a;fill-opacity:1;stroke:#000000;stroke-width:2;stroke-linecap:butt;stroke-linejoin:miter;stroke-miterlimit:4;stroke-opacity:1;stroke-dasharray:none"
       d="M 129.23384,403.45735 C 115.31756,404.02437 100.53196,414.88695 92.171337,432.26985 86.145677,444.79804 84.691477,458.1324 87.265087,469.1761 56.104267,490.46185 32.221527,535.42022 32.221527,535.42022 32.221527,535.42022 72.802117,585.88105 91.940277,568.48272 110.23153,551.85431 125.71315,496.64753 128.04634,490.2386 137.72852,485.77569 146.76919,476.82002 152.64009,464.6136 163.78758,441.4364 159.27644,415.38797 142.57759,406.45735 138.40288,404.22469 133.8726,403.26834 129.23384,403.45735 z"
       id="path3876"
       inkscape:connector-curvature="0"
       sodipodi:nodetypes="ssccscsss"
       inkscape:export-filename="/home/tim/pp/load_and_authorize_resource/mascot.png"
       inkscape:export-xdpi="76.360001"
       inkscape:export-ydpi="76.360001" />
    <path
       style="font-size:medium;font-style:normal;font-variant:normal;font-weight:normal;font-stretch:normal;text-indent:0;text-align:start;text-decoration:none;line-height:normal;letter-spacing:normal;word-spacing:normal;text-transform:none;direction:ltr;block-progression:tb;writing-mode:lr-tb;text-anchor:start;baseline-shift:baseline;color:#000000;fill:#ff2a2a;fill-opacity:1;fill-rule:nonzero;stroke:#000000;stroke-width:2;stroke-opacity:1;marker:none;visibility:visible;display:inline;overflow:visible;enable-background:accumulate;font-family:Sans;-inkscape-font-specification:Sans"
       d="M 51.842337,537.27845 C 42.653157,531.56993 23.719807,531.23868 22.173457,541.94553 L 19.033587,563.68588 C 17.487237,574.39275 19.711647,584.68929 29.500107,589.29515 L 49.093167,598.51447 C 58.881637,603.12034 66.323367,597.79012 74.702437,590.94767 L 87.121407,580.80619 C 95.500477,573.96374 94.543227,563.80515 85.354047,558.09664 z"
       id="rect3062"
       inkscape:connector-curvature="0"
       sodipodi:nodetypes="sssssssss"
       inkscape:export-filename="/home/tim/pp/load_and_authorize_resource/mascot.png"
       inkscape:export-xdpi="76.360001"
       inkscape:export-ydpi="76.360001" />
    <path
       sodipodi:type="arc"
       style="opacity:0.7;fill:#333333;fill-opacity:1;stroke:#000000;stroke-width:2;stroke-linecap:round;stroke-linejoin:round;stroke-miterlimit:4;stroke-opacity:1;stroke-dasharray:none;stroke-dashoffset:0"
       id="path3098"
       sodipodi:cx="-113.66904"
       sodipodi:cy="481.4072"
       sodipodi:rx="11.018938"
       sodipodi:ry="11.888854"
       d="M -102.6501,481.4072 A 11.018938,11.888854 0 1 1 -124.68797,481.4072 11.018938,11.888854 0 1 1 -102.6501,481.4072 z"
       transform="translate(230.55218,-50.661214)"
       inkscape:export-filename="/home/tim/pp/load_and_authorize_resource/mascot.png"
       inkscape:export-xdpi="76.360001"
       inkscape:export-ydpi="76.360001" />
    <path
       transform="matrix(0.70360746,0.25574138,-0.34534281,0.95012304,389.20952,20.978006)"
       d="M -102.6501,481.4072 A 11.018938,11.888854 0 1 1 -124.68797,481.4072 11.018938,11.888854 0 1 1 -102.6501,481.4072 z"
       sodipodi:ry="11.888854"
       sodipodi:rx="11.018938"
       sodipodi:cy="481.4072"
       sodipodi:cx="-113.66904"
       id="path3100"
       style="opacity:0.7;fill:#333333;fill-opacity:1;stroke:#000000;stroke-width:2;stroke-linecap:round;stroke-linejoin:round;stroke-miterlimit:4;stroke-opacity:1;stroke-dasharray:none;stroke-dashoffset:0"
       sodipodi:type="arc"
       inkscape:export-filename="/home/tim/pp/load_and_authorize_resource/mascot.png"
       inkscape:export-xdpi="76.360001"
       inkscape:export-ydpi="76.360001" />
    <path
       sodipodi:type="arc"
       style="opacity:0.7;fill:#333333;fill-opacity:1;stroke:#000000;stroke-width:2;stroke-linecap:round;stroke-linejoin:round;stroke-miterlimit:4;stroke-opacity:1;stroke-dasharray:none;stroke-dashoffset:0"
       id="path3102"
       sodipodi:cx="-200.08072"
       sodipodi:cy="631.61273"
       sodipodi:rx="5.2194972"
       sodipodi:ry="5.509469"
       d="M -194.86122,631.61273 A 5.2194972,5.509469 0 1 1 -205.30022,631.61273 5.2194972,5.509469 0 1 1 -194.86122,631.61273 z"
       transform="translate(241.57112,-77.918588)"
       inkscape:export-filename="/home/tim/pp/load_and_authorize_resource/mascot.png"
       inkscape:export-xdpi="76.360001"
       inkscape:export-ydpi="76.360001" />
    <path
       transform="translate(269.40844,-61.100209)"
       d="M -194.86122,631.61273 A 5.2194972,5.509469 0 1 1 -205.30022,631.61273 5.2194972,5.509469 0 1 1 -194.86122,631.61273 z"
       sodipodi:ry="5.509469"
       sodipodi:rx="5.2194972"
       sodipodi:cy="631.61273"
       sodipodi:cx="-200.08072"
       id="path3104"
       style="opacity:0.7;fill:#333333;fill-opacity:1;stroke:#000000;stroke-width:2;stroke-linecap:round;stroke-linejoin:round;stroke-miterlimit:4;stroke-opacity:1;stroke-dasharray:none;stroke-dashoffset:0"
       sodipodi:type="arc"
       inkscape:export-filename="/home/tim/pp/load_and_authorize_resource/mascot.png"
       inkscape:export-xdpi="76.360001"
       inkscape:export-ydpi="76.360001" />
    <path
       style="fill:#4d4d4d;stroke:#000000;stroke-width:1px;stroke-linecap:butt;stroke-linejoin:miter;stroke-opacity:1"
       d="M 31.865637,561.15824 C 32.373757,562.82222 32.881887,564.4862 33.390007,566.15018 38.267247,582.12187 61.772787,583.63826 62.597077,586.33759 62.706867,586.69713 53.228517,589.24923 51.719797,588.44639 42.028247,583.28917 30.636877,575.72879 31.865637,561.15824 z"
       id="path3106"
       inkscape:connector-curvature="0"
       inkscape:export-filename="/home/tim/pp/load_and_authorize_resource/mascot.png"
       inkscape:export-xdpi="76.360001"
       inkscape:export-ydpi="76.360001" />
    <path
       style="fill:#552200;stroke:#000000;stroke-width:1px;stroke-linecap:butt;stroke-linejoin:miter;stroke-opacity:1"
       d="M 288.95546,609.92846 305.42089,612.31723 304.05588,620.5926 287.2492,618.28914 z"
       id="path3893"
       inkscape:connector-curvature="0"
       inkscape:export-filename="/home/tim/pp/load_and_authorize_resource/mascot.png"
       inkscape:export-xdpi="76.360001"
       inkscape:export-ydpi="76.360001" />
    <path
       style="fill:#552200;stroke:#000000;stroke-width:1px;stroke-linecap:butt;stroke-linejoin:miter;stroke-opacity:1"
       d="M 364.28692,585.87017 366.93163,603.0181 380.83767,605.74812 375.54825,587.49112 z"
       id="path3895"
       inkscape:connector-curvature="0"
       inkscape:export-filename="/home/tim/pp/load_and_authorize_resource/mascot.png"
       inkscape:export-xdpi="76.360001"
       inkscape:export-ydpi="76.360001" />
    <path
       style="fill:#552200;stroke:#000000;stroke-width:1px;stroke-linecap:butt;stroke-linejoin:miter;stroke-opacity:1"
       d="M 537.55783,612.82911 550.35479,601.0559 556.83859,607.11313 544.5535,620.08072 z"
       id="path3897"
       inkscape:connector-curvature="0"
       inkscape:export-filename="/home/tim/pp/load_and_authorize_resource/mascot.png"
       inkscape:export-xdpi="76.360001"
       inkscape:export-ydpi="76.360001" />
    <path
       style="fill:#552200;stroke:#000000;stroke-width:1px;stroke-linecap:butt;stroke-linejoin:miter;stroke-opacity:1"
       d="M 562.98113,632.10987 587.72193,629.03859 590.45195,639.36148 564.34614,643.11526 z"
       id="path3899"
       inkscape:connector-curvature="0"
       inkscape:export-filename="/home/tim/pp/load_and_authorize_resource/mascot.png"
       inkscape:export-xdpi="76.360001"
       inkscape:export-ydpi="76.360001" />
    <text
       xml:space="preserve"
       style="font-size:24.07733345px;font-style:normal;font-variant:normal;font-weight:normal;font-stretch:normal;line-height:125%;letter-spacing:0px;word-spacing:0px;fill:#000000;fill-opacity:1;stroke:none;font-family:luna;-inkscape-font-specification:luna"
       x="578.12274"
       y="669.84076"
       id="text3915"
       sodipodi:linespacing="125%"
       inkscape:export-filename="/home/tim/pp/load_and_authorize_resource/mascot.png"
       inkscape:export-xdpi="76.360001"
       inkscape:export-ydpi="76.360001"><tspan
         sodipodi:role="line"
         id="tspan3917"
         x="578.12274"
         y="669.84076">by Mac</tspan></text>
  </g>
</svg>
